<?xml version="1.0" ?><svg data-name="Layer 18" id="Layer_18" viewBox="0 0 32 32" xmlns="http://www.w3.org/2000/svg"><title/><path d="M29,14a1,1,0,0,0-1,1H26.949a10.947,10.947,0,0,0-2.5-6.034l0.745-.745a1,1,0,0,0,1.414-1.414L25.192,5.394a1,1,0,0,0-1.414,1.414l-0.745.745A10.947,10.947,0,0,0,17,5.051V4a1,1,0,0,0,0-2H15a1,1,0,0,0,0,2V5.051a10.947,10.947,0,0,0-6.034,2.5L8.222,6.808A1,1,0,0,0,6.808,5.394L5.394,6.808A1,1,0,1,0,6.808,8.222L7.552,8.966A10.947,10.947,0,0,0,5.051,15H4a1,1,0,0,0-2,0v2a1,1,0,0,0,2,0H5.051a10.947,10.947,0,0,0,2.5,6.034l-0.745.745a1,1,0,0,0-1.414,1.414l1.414,1.414a1,1,0,0,0,1.414-1.414l0.745-.745A10.947,10.947,0,0,0,15,26.949V28a1,1,0,0,0,0,2h2a1,1,0,0,0,0-2V26.949a10.947,10.947,0,0,0,6.034-2.5l0.745,0.745a1,1,0,1,0,1.414,1.414l1.414-1.414a1,1,0,0,0-1.414-1.414l-0.745-.745A10.947,10.947,0,0,0,26.949,17H28a1,1,0,0,0,2,0V15A1,1,0,0,0,29,14ZM16,25a9,9,0,1,1,9-9A9.01,9.01,0,0,1,16,25Z"/><path d="M19.5,14A3.5,3.5,0,1,0,23,17.5,3.5,3.5,0,0,0,19.5,14Zm0,5A1.5,1.5,0,1,1,21,17.5,1.5,1.5,0,0,1,19.5,19Z"/><path d="M17,12a3,3,0,1,0-3,3A3,3,0,0,0,17,12Zm-3,1a1,1,0,1,1,1-1A1,1,0,0,1,14,13Z"/><path d="M12.5,17A2.5,2.5,0,1,0,15,19.5,2.5,2.5,0,0,0,12.5,17Zm0,3a0.5,0.5,0,1,1,.5-0.5A0.5,0.5,0,0,1,12.5,20Z"/></svg>